<svg xmlns="http://www.w3.org/2000/svg" xmlns:xlink="http://www.w3.org/1999/xlink" enable-background="new 0 0 1200 1200" viewBox="0 0 1200 1200"><linearGradient id="a" x1="4199.388" x2="4784.128" y1="454.949" y2="987.127" gradientTransform="matrix(-1 0 0 1 4950.604 0)" gradientUnits="userSpaceOnUse"><stop offset="0" stop-color="#fde7eb" class="stopColorfde7eb svgShape"/><stop offset=".626" stop-color="#fae2e9" class="stopColorfae2e9 svgShape"/><stop offset="1" stop-color="#fde7eb" class="stopColorfde7eb svgShape"/></linearGradient><path fill="url(#a)" d="M792.026,1039.951c-21.843,15.848-45.233,30.8-71.635,36.391   c-26.401,5.591-56.579,0.167-74.777-19.761c-8.026-8.788-13.34-19.85-21.807-28.213c-27.299-26.966-72.081-15.775-110.084-10.466   c-54.159,7.566-112.346-2.141-155.893-35.219c-50.841-38.619-75.927-108.248-61.398-170.418   c8.479-36.282,28.983-69.171,35.109-105.924c12.416-74.488-35.289-143.688-65.714-212.803   c-24.593-55.866-38.426-120.436-17.421-177.747c18.512-50.511,61.559-88.324,107.804-115.809   c32.035-19.04,70.222-34.555,105.879-23.725c52.273,15.876,72.837,77.818,111.953,115.955   c61.282,59.75,158.041,54.087,243.382,60.597c29.505,2.251,59.582,6.652,85.667,20.622c26.085,13.971,47.747,39.163,50.49,68.627   c2.916,31.321-15.404,60.752-36.711,83.893c-21.307,23.142-46.565,43.137-63.048,69.93c-23.551,38.282-25.88,88.746-5.956,129.035   c18.098,36.596,51.895,63.029,73.202,97.854c21.307,34.825,24.812,88.241-9.929,109.685L792.026,1039.951z"/><linearGradient id="b" x1="773.834" x2="773.834" y1="897.856" y2="934.783" gradientUnits="userSpaceOnUse"><stop offset="0" stop-color="#1bb1cf" class="stopColor1bb1cf svgShape"/><stop offset="1" stop-color="#2d6f9e" class="stopColor2d6f9e svgShape"/></linearGradient><ellipse cx="773.834" cy="915.531" fill="url(#b)" rx="188.049" ry="17.915"/><path fill="#e994a9" d="M654.657,830.659c2.465,22.2,6.886,97.962,6.886,99.253c68.668,4.921,173.173,4.935,242.242-1.43     c0.001-0.032,0.515,2.365-61.641-283.293c0,0-51.85-232.186-113.444-245.056c-61.594-12.87-71.321-42.579-95.946-64.132     c-23.503-20.571-246.179-123.57-313.011-123.57c-28.581,0-29.063,24.156-29.063,27.285c0,57.301,225.127,118.174,225.127,137.824     c0,13.639-112.049-0.21-125.519-1.971c0,0,83.297,346.004,173.654,390.855C621.863,795.175,651.626,803.357,654.657,830.659z" class="colore994a9 svgShape"/><linearGradient id="c" x1="733.864" x2="733.864" y1="801.257" y2="922.67" gradientUnits="userSpaceOnUse"><stop offset="0" stop-color="#e994a9" class="stopColore994a9 svgShape"/><stop offset="1" stop-color="#d185a1" class="stopColord185a1 svgShape"/><stop offset="1" stop-color="#ac6e94" class="stopColorac6e94 svgShape"/></linearGradient><path fill="url(#c)" d="M849.145,677.361c-62.606-5.628-272,76.137-285.202,89.063     c57.92,28.75,87.683,36.933,90.714,64.235c2.465,22.2,6.886,97.962,6.886,99.253c68.668,4.921,173.173,4.935,242.242-1.43     C903.787,928.45,901.819,919.441,849.145,677.361z"/><linearGradient id="d" x1="708.985" x2="546.065" y1="645.154" y2="601.996" gradientUnits="userSpaceOnUse"><stop offset="0" stop-color="#e994a9" class="stopColore994a9 svgShape"/><stop offset="1" stop-color="#ac6e94" class="stopColorac6e94 svgShape"/></linearGradient><path fill="url(#d)" d="M594.149,478.71C547.312,467,480.279,704.39,551.794,756.62      c23.877,27.392,98.234,40.958,138.201,3.43c39.967-37.528,125.202-3.931,86.567-103.762      C737.927,556.456,643.546,406.292,594.149,478.71z"/><linearGradient id="e" x1="338.365" x2="421.976" y1="232.61" y2="279.717" gradientUnits="userSpaceOnUse"><stop offset="0" stop-color="#e994a9" class="stopColore994a9 svgShape"/><stop offset="1" stop-color="#ac6e94" class="stopColorac6e94 svgShape"/></linearGradient><path fill="url(#e)" d="M314.996,274.874c45.785,35.609,143.752,69.034,183.51,89.294      c16.272-27.031,35.683-72.21,33.659-80.327c-0.341-0.043-115.18-53.078-184.908-67.859L314.996,274.874z"/><g fill="#000000" class="color000 svgShape"><path fill="#e3e7eb" d="M407.445,743.555c-13.536,0-24.548-12.152-24.548-27.09V148.673     c0-14.937,11.012-27.09,24.548-27.09h232.681c13.535,0,24.547,12.152,24.547,27.09v567.792c0,14.937-11.012,27.09-24.547,27.09     H407.445z" class="colore3e7eb svgShape"/><path fill="#c5ccdb" d="M495.072,677.084c0,3.817-3.094,6.911-6.911,6.911c-3.817,0-6.911-3.094-6.911-6.911      c0-3.817,3.094-6.911,6.911-6.911C491.978,670.173,495.072,673.267,495.072,677.084z" class="colorc5ccdb svgShape"/><linearGradient id="f" x1="502.348" x2="516.169" y1="677.084" y2="677.084" gradientUnits="userSpaceOnUse"><stop offset="0" stop-color="#f2d09f" class="stopColorf2d09f svgShape"/><stop offset=".389" stop-color="#f0b393" class="stopColorf0b393 svgShape"/><stop offset=".757" stop-color="#ef9e8b" class="stopColoref9e8b svgShape"/><stop offset="1" stop-color="#ef9688" class="stopColoref9688 svgShape"/></linearGradient><path fill="url(#f)" d="M516.169,677.084c0,3.817-3.094,6.911-6.911,6.911c-3.817,0-6.911-3.094-6.911-6.911      c0-3.817,3.094-6.911,6.911-6.911C513.075,670.173,516.169,673.267,516.169,677.084z"/><path fill="#c5ccdb" d="M537.266 677.084c0 3.817-3.094 6.911-6.911 6.911-3.817 0-6.911-3.094-6.911-6.911 0-3.817 3.094-6.911 6.911-6.911C534.172 670.173 537.266 673.267 537.266 677.084zM558.363 677.084c0 3.817-3.094 6.911-6.911 6.911-3.817 0-6.911-3.094-6.911-6.911 0-3.817 3.094-6.911 6.911-6.911C555.269 670.173 558.363 673.267 558.363 677.084zM579.461 677.084c0 3.817-3.094 6.911-6.911 6.911-3.817 0-6.911-3.094-6.911-6.911 0-3.817 3.094-6.911 6.911-6.911C576.367 670.173 579.461 673.267 579.461 677.084z" class="colorc5ccdb svgShape"/><g fill="#000000" class="color000 svgShape"><path fill="#ffffff" d="M530.356,242.98c50.484,0,91.409,40.925,91.409,91.409c0,50.483-40.925,91.409-91.409,91.409      c-50.484,0-91.409-40.925-91.409-91.409C438.947,283.905,479.871,242.98,530.356,242.98z M530.356,237.485      c-53.433,0-96.904,43.471-96.904,96.904c0,53.433,43.471,96.904,96.904,96.904c53.433,0,96.903-43.471,96.903-96.904      C627.259,280.956,583.789,237.485,530.356,237.485z" class="colorfff svgShape"/><defs><circle id="g" cx="530.355" cy="334.389" r="91.409" transform="rotate(-45.001 530.354 334.397)" fill="#000000" class="color000 svgShape"/></defs><use fill="#f7f5de" overflow="visible" xlink:href="#g"/><clipPath id="h"><use overflow="visible" xlink:href="#g"/></clipPath><circle cx="530.355" cy="334.389" r="91.409" fill="#cadede" clip-path="url(#h)" transform="rotate(-45.001 530.354 334.397)" class="colorcadede svgShape"/><g clip-path="url(#h)" fill="#000000" class="color000 svgShape"><linearGradient id="i" x1="526.993" x2="526.993" y1="473.83" y2="328.393" gradientUnits="userSpaceOnUse"><stop offset="0" stop-color="#124c80" class="stopColor124c80 svgShape"/><stop offset=".252" stop-color="#354974" class="stopColor354974 svgShape"/><stop offset="1" stop-color="#984150" class="stopColor984150 svgShape"/></linearGradient><path fill="url(#i)" d="M560.097,445.443h4.307c6.706-7.22,13.2-13.575,15.343-20.128        c4.858-14.854-23.886-40.667-19.054-49.789c4.832-9.121,8.702-14.825,8.702-22.362c0-20.359-8.639-46.512-19.08-56.74        c-5.682-5.566-20.013-8.146-20.013-8.146s-22.213,4.362-25.333,13.484c-3.119,9.121-0.524,18.243-13.575,48.78        c-9.934,23.245-24.153,66.71-14.488,108.461h76.476c2.018-3.104,4.323-6.012,6.715-8.778V445.443z"/><linearGradient id="j" x1="566.365" x2="539.017" y1="416.772" y2="417.42" gradientUnits="userSpaceOnUse"><stop offset="0" stop-color="#f2d09f" class="stopColorf2d09f svgShape"/><stop offset=".389" stop-color="#f0b393" class="stopColorf0b393 svgShape"/><stop offset=".757" stop-color="#ef9e8b" class="stopColoref9e8b svgShape"/><stop offset="1" stop-color="#ef9688" class="stopColoref9688 svgShape"/></linearGradient><path fill="url(#j)" d="M560.097,445.443h9.969l-7.56-35.426c-1.185-5.554-3.911-10.681-7.878-14.816        l-16.282-16.515l13.168,77.189l8.583-2.802V445.443z"/><path fill="#e84a54" d="M560.097,445.443h9.969l-0.53-2.486c-3.341-0.58-7.096-0.568-10.863,0.781        c-3.969,1.421-6.536,3.59-8.202,5.811l1.043,6.325l8.583-2.802V445.443z" class="colore84a54 svgShape"/><path fill="#f2d09f" d="M526.224,450.14c0.862,2.205,0.61,5.361-0.256,8.862h30.797        c-1.024-4.128-1.709-8.386-1.709-12.391c0-15.897,12.454-13.145,9.892-29.331c-2.549-16.106-31.675-43.642-31.675-43.642        c-8.855-7.892-20.325,0-20.325,0s-26.556,15.459-20.714,28.812C498.077,415.803,522.743,441.238,526.224,450.14z" class="colorf2d09f svgShape"/><path fill="#e84a54" d="M512.488,381.823c-3.361-1.179-2.618-6.378,0.444-8.176l0.016-0.009        c0,0,5.487-3.771,11.8-3.488c0.554,0.025,1.103,0.135,1.617,0.337c3.99,1.575,4.813,2.153,6.088,3.048        c0.356,0.249,7.523,5.716,10.681,15.291c0.955,2.897,3.064,9.213,2.982,12.595c-0.135,5.608-3.607,6.524-6.61,2.999        C531.482,395.004,514.976,382.695,512.488,381.823z" class="colore84a54 svgShape"/><linearGradient id="k" x1="538.453" x2="513.453" y1="418.739" y2="437.073" gradientUnits="userSpaceOnUse"><stop offset="0" stop-color="#f2d09f" class="stopColorf2d09f svgShape"/><stop offset=".389" stop-color="#f0b393" class="stopColorf0b393 svgShape"/><stop offset=".757" stop-color="#ef9e8b" class="stopColoref9e8b svgShape"/><stop offset="1" stop-color="#ef9688" class="stopColoref9688 svgShape"/></linearGradient><path fill="url(#k)" d="M519.577,440.128c7.346,4.905,9.255,12.92,9.549,18.874h7.992        c0.77-1.489,1.572-3.26,2.305-5.308c2.487-6.963,11.631-17.712,15.22-20.073c3.589-2.361-9.975-1.294-19.1-5.568        c-6.164-2.887-10.371-6.577-13.417-13.198c-1.596-3.47-1.862-8.666-5.035-10.862c-1.267-0.876-2.725-1.921-4.288-3.109        c-5.049-3.836-9.307,9.269-8.655,20.457C504.8,432.528,506.758,431.569,519.577,440.128z"/><path fill="#f5958f" d="M518.519,321.799c0,0,4.59,24.228-1.533,50.69c-1.064,4.599-0.848,7.163,3.172,9.759        c4.258,2.75,14.804,10.324,19.921,16.479c1.441,1.345,2.432,2.079,2.222,0.141c0,0-0.573-6.373-2.586-12.822        c-0.534-1.71-1.81-4.584-2.973-5.962c-2.707-3.207-6.327-10.772-2.501-31.366C534.02,344.336,518.519,321.799,518.519,321.799        z" class="colorf5958f svgShape"/><linearGradient id="l" x1="413.962" x2="418.125" y1="364.141" y2="329.174" gradientTransform="matrix(-1 0 0 1 942.99 0)" gradientUnits="userSpaceOnUse"><stop offset="0" stop-color="#f07d80" class="stopColorf07d80 svgShape"/><stop offset="1" stop-color="#d96c71" class="stopColord96c71 svgShape"/></linearGradient><path fill="url(#l)" d="M533.905,350.02c-1.365,8.185-1.373,14.384-0.729,19.043        c-0.601,1.644-1.455,2.889-2.648,3.48c-7.494,3.712-10.371-28-10.371-28l13.115,0.63        C533.273,345.173,533.598,347.138,533.905,350.02z"/><path fill="#b25b70" d="M522.563,459.002h16.829c-1.805-3.983-3.348-6.749-3.849-7.068c0,0-14.402-0.391-13.747,3.129         C521.944,455.864,522.21,457.24,522.563,459.002z" class="colorb25b70 svgShape"/><linearGradient id="m" x1="396.934" x2="420.891" y1="455.468" y2="455.468" gradientTransform="matrix(-1 0 0 1 942.99 0)" gradientUnits="userSpaceOnUse"><stop offset="0" stop-color="#b25b70" class="stopColorb25b70 svgShape"/><stop offset="1" stop-color="#953c59" class="stopColor953c59 svgShape"/></linearGradient><path fill="url(#m)" d="M539.392,459.002c-0.013-0.028-1.114-2.377-1.114-2.377         c-0.166-0.341-0.972-1.921-1.043-2.055c-0.032-0.06-0.496-0.905-0.549-0.997c-0.038-0.066-0.44-0.736-0.477-0.794         c-0.026-0.04-0.177-0.268-0.207-0.312l-0.024-0.033c-0.028-0.039-0.055-0.077-0.082-0.112c-0.025-0.033-0.051-0.07-0.074-0.1         c-0.038-0.048-0.072-0.086-0.105-0.124l-0.049-0.056c-0.046-0.047-0.088-0.084-0.124-0.107c0,0-2.512-0.001-2.576,0         c-0.152,0.003-2.255,0.078-2.319,0.082c-0.183,0.01-1.647,0.112-1.819,0.127c-0.081,0.007-1.547,0.166-1.547,0.166         c-0.098,0.013-0.864,0.124-0.995,0.145c-0.091,0.015-0.445,0.077-0.53,0.093c-0.059,0.011-0.432,0.086-0.432,0.086         c-1.13,1.273-2.232,2.653-3.227,3.97c0.136,0.67,0.302,1.482,0.489,2.4H539.392z"/><path fill="#b25b70" d="M560.097,448.266c-2.461,0.434-4.511,1.188-4.693,2.495c-0.373,2.681-0.139,4.771-0.958,8.241         h5.651V448.266z" class="colorb25b70 svgShape"/><linearGradient id="n" x1="376.25" x2="383.642" y1="475.122" y2="464.602" gradientTransform="matrix(-1 0 0 1 942.99 0)" gradientUnits="userSpaceOnUse"><stop offset="0" stop-color="#b25b70" class="stopColorb25b70 svgShape"/><stop offset="1" stop-color="#953c59" class="stopColor953c59 svgShape"/></linearGradient><path fill="url(#n)" d="M555.292,459.002c-0.273-1.378-0.431-2.16-0.431-2.16         c-0.022,0.157-0.158,0.95-0.188,1.104c-0.015,0.081-0.123,0.603-0.164,0.787c-0.02,0.088-0.042,0.18-0.063,0.269H555.292z"/><path fill="#f2d09f" d="M501.715,459.002h39.728l0.286-0.105l-18.134-40.918c3.183-17.986-4.336-35.612-17.414-39.294        c-3.854,3.775-22.847,11.34-22.292,28.38C484.293,419.462,495.305,443.418,501.715,459.002z" class="colorf2d09f svgShape"/><path fill="#e84a54" d="M541.442,459.002l0.286-0.105l-1.736-3.918c-3.458,1.033-7.69,2.448-12.18,4.023H541.442z" class="colore84a54 svgShape"/><path fill="#f5958f" d="M545.177,307.657c0.645,3.143,7.813,13.836,3.563,32.905        c-1.288,5.78-10.096,21.228-15.44,19.298c-5.345-1.93-13.659-10.488-14.846-19.298c-1.188-8.81-3.275-10.478-0.9-20.844        C519.929,309.353,542.688,295.534,545.177,307.657z" class="colorf5958f svgShape"/><linearGradient id="o" x1="393.256" x2="426.523" y1="325.392" y2="325.392" gradientTransform="matrix(-1 0 0 1 942.99 0)" gradientUnits="userSpaceOnUse"><stop offset="0" stop-color="#f07d80" class="stopColorf07d80 svgShape"/><stop offset="1" stop-color="#d96c71" class="stopColord96c71 svgShape"/></linearGradient><path fill="url(#o)" d="M545.177,307.657c0.414,2.017,3.512,7.151,4.556,15.608        c-0.444,14.522-20.274,13.949-28.206,21.278c-0.178,0.165-1.197,3.152-1.369,3.311c-0.568-1.458-1.501-5.787-1.704-7.292        c-1.188-8.81-3.275-10.478-0.9-20.844C519.929,309.353,542.688,295.534,545.177,307.657z"/><path fill="#db4955" d="M517.775,459.002c0.109-1.409,0.165-2.757,0.165-4.023c0-30.9-12.458-41.326-12.458-76.294        c0-44.191,44.833-43.176,44.833-71.836c0-14.725-9.47-30.404-22.945-30.404c-35.187,0-34.888,38.46-39.334,55.033        c-7.912,29.489-30.187,55.113-30.187,97.296c0,4.571,0.443,16.961,2.909,30.228H517.775z" class="colordb4955 svgShape"/></g></g><g fill="#000000" class="color000 svgShape"><circle cx="470.035" cy="592.283" r="30.023" fill="#e84a54" transform="rotate(-67.5 470.028 592.27)" class="colore84a54 svgShape"/><rect width="27.999" height="5.495" x="456.036" y="589.535" fill="#ffffff" transform="rotate(-45.001 470.042 592.297)" class="colorfff svgShape"/><rect width="5.495" height="27.999" x="467.288" y="578.283" fill="#ffffff" transform="rotate(-45.001 470.017 592.284)" class="colorfff svgShape"/><g fill="#000000" class="color000 svgShape"><circle cx="577.537" cy="592.283" r="30.023" fill="#60b5d2" transform="rotate(-22.5 577.51 592.26)" class="color60b5d2 svgShape"/><polygon fill="#ffffff" points="576.636 605.16 564.453 594.337 568.102 590.229 575.724 597.001 586.564 581.884 591.029 585.086" class="colorfff svgShape"/></g></g></g><g fill="#000000" class="color000 svgShape"><path fill="#e994a9" d="M374.908,541.998c0,0-6.343-0.999-14.174-0.999c-9.997,0-22.419,1.628-27.169,9.039      c-6.939,10.825-8.374,17.212-8.374,25.843c0,5.968,9.079,16.988,19.333,26.843c6.153,5.913,10.984,13.481,19.416,13.481      c15.107,0,24.822-14.606,24.822-30.828c0-10.891-4.32-22.488-13.992-30.824L374.908,541.998z" class="colore994a9 svgShape"/><linearGradient id="p" x1="356.639" x2="372.074" y1="568.548" y2="549.365" gradientUnits="userSpaceOnUse"><stop offset="0" stop-color="#e994a9" class="stopColore994a9 svgShape"/><stop offset="1" stop-color="#ac6e94" class="stopColorac6e94 svgShape"/></linearGradient><path fill="url(#p)" d="M387.797,576.489c-1.757-8.021-5.962-15.849-13.026-21.936l0.105-9.563      c-0.981-1.208-1.88-2.32-2.706-3.343c-11.698-1.305-32.212-1.58-38.604,8.392c-1.198,1.869-2.229,3.603-3.12,5.242      c7.946,5.719,18.963,11.299,25.557,16.647c11.148,9.04,12.251,12.348,21.291,11.686      C381.362,583.315,385.823,581.011,387.797,576.489z"/><path fill="#e994a9" d="M374.908,451.836c0,0-1.513-0.089-4.038-0.089c-14.193,0-59.251-0.623-59.251,56.01      c0,12.288,6.314,19.586,17.956,28.482c7.539,8.418,15.96,19.829,28.758,19.829c26.496,0,36.846-25.667,36.846-44.431      c0-15.669-6.215-32.355-20.132-44.348L374.908,451.836z" class="colore994a9 svgShape"/><linearGradient id="q" x1="352.341" x2="372.206" y1="497.189" y2="451.16" gradientUnits="userSpaceOnUse"><stop offset="0" stop-color="#e994a9" class="stopColore994a9 svgShape"/><stop offset="1" stop-color="#ac6e94" class="stopColorac6e94 svgShape"/></linearGradient><path fill="url(#q)" d="M317.894,476.997c11.722,14.03,32.047,26.91,48.44,26.91      c9.198,0,19.906-0.692,27.777-3.494c-2.306-12.086-8.448-23.975-19.064-33.125l-0.139-15.452      C347.356,450.208,327.414,458.083,317.894,476.997z"/><path fill="#e994a9" d="M374.908,374.961c0,0-1.513-0.089-4.038-0.089c-14.193,0-59.251-0.623-59.251,56.01     c0,12.288,6.314,19.587,17.956,28.482c7.539,8.418,15.96,19.829,28.758,19.829c26.496,0,36.846-25.667,36.846-44.431     c0-15.67-6.215-32.355-20.132-44.349L374.908,374.961z" class="colore994a9 svgShape"/><linearGradient id="r" x1="368.373" x2="389.207" y1="410.308" y2="384.629" gradientUnits="userSpaceOnUse"><stop offset="0" stop-color="#e994a9" class="stopColore994a9 svgShape"/><stop offset="1" stop-color="#ac6e94" class="stopColorac6e94 svgShape"/></linearGradient><path fill="url(#r)" d="M375.047,390.413l-0.139-15.452c0,0-1.513-0.089-4.038-0.089     c-7.413,0-23.246-0.169-36.681,7.738c-9.944,15.858,52.044,22.24,53.608,52.643c0.329,6.391,2.474,11.341,5.357,14.345     C398.817,428.925,392.458,405.418,375.047,390.413z"/></g><linearGradient id="s" x1="734.438" x2="496.344" y1="489.8" y2="628.822" gradientUnits="userSpaceOnUse"><stop offset="0" stop-color="#e994a9" class="stopColore994a9 svgShape"/><stop offset="1" stop-color="#ac6e94" class="stopColorac6e94 svgShape"/></linearGradient><path fill="url(#s)" d="M728.44,204.868c-15.264,0-57.927,23.238-57.317,113.347    c0.238,35.197,4.313,55.346,1.541,141.654c-0.536,16.686-10.462,40.85-5.086,148.643c5.377,107.793,40.163,143.904,82.263,143.904    c70.804,0,101.858-39.584,92.303-107.227c-21.86-154.753-76.652-212.62-100.144-369.1    C742.001,248.831,750.013,204.868,728.44,204.868z"/></svg>